# AST/ASF file generated using VICON BodyLanguage
# -----------------------------------------------
:version 1.10
:name VICON
:units
  mass 1.0
  length 0.45
  angle deg
:documentation
   .ast/.asf automatically generated from VICON data using
   VICON BodyBuilder and BodyLanguage model FoxedUp or BRILLIANT.MOD
:root
   order TX TY TZ RX RY RZ
   axis XYZ
   position 0 0 0  
   orientation 0 0 0 
:bonedata
  begin
     id 1 
     name lhipjoint
     direction 0.588788 -0.725889 0.355548 
     length 2.37778 
     axis 0 0 0  XYZ
  end
  begin
     id 2 
     name lfemur
     direction 0.34202 -0.939693 0  
     length 6.86393  
     axis 0 0 20  XYZ
    dof rx ry rz
    limits (-160.0 20.0)
           (-70.0 70.0)
           (-60.0 70.0)
  end
  begin
     id 3 
     name ltibia
     direction 0.34202 -0.939693 0   
     length 7.32851   
     axis 0 0 20   XYZ
    dof rx
    limits (-10.0 170.0)
  end
  begin
     id 4 
     name lfoot
     direction 0.0626533 -0.172138 0.983078   
     length 1.98929   
     axis -90 7.62852e-016 20   XYZ
    dof rx rz
    limits (-45.0 90.0)
           (-70.0 20.0)
  end
  begin
     id 5 
     name ltoes
     direction 1.53647e-011 -4.21734e-011 1   
     length 1.00479   
     axis -90 7.62852e-016 20   XYZ
    dof rx
    limits (-90.0 20.0)
  end
  begin
     id 6 
     name rhipjoint
     direction -0.59141 -0.724168 0.354705   
     length 2.38343  
     axis 0 0 0  XYZ 
  end
  begin
     id 7 
     name rfemur
     direction -0.34202 -0.939693 0   
     length 6.95589   
     axis 0 0 -20   XYZ
    dof rx ry rz
    limits (-160.0 20.0)
           (-70.0 70.0)
           (-70.0 60.0)
  end
  begin
     id 8 
     name rtibia
     direction -0.34202 -0.939693 0   
     length 7.32327   
     axis 0 0 -20   XYZ
    dof rx
    limits (-10.0 170.0)
 end
 begin
     id 9 
     name rfoot
     direction -0.0660461 -0.18146 0.981178   
     length 1.85272  
     axis -90 -7.62852e-016 -20   XYZ
    dof rx rz
    limits (-45.0 90.0)
           (-20.0 70.0)
  end
  begin
     id 10 
     name rtoes
     direction -1.53586e-011 -4.21988e-011 1   
     length 0.93746   
     axis -90 -7.62852e-016 -20   XYZ
    dof rx
    limits (-90.0 20.0)
  end
  begin
     id 11 
     name lowerback
     direction -0.0107982 0.991059 0.13299   
     length 1.98691   
     axis 0 0 0   XYZ
    dof rx ry rz
    limits (-20.0 45.0)
           (-30.0 30.0)
           (-30.0 30.0)
  end
  begin
     id 12 
     name upperback
     direction 0.0076296 0.999916 0.0104576   
     length 1.99501   
     axis 0 0 0   XYZ
    dof rx ry rz
    limits (-20.0 45.0)
           (-30.0 30.0)
           (-30.0 30.0)
  end
  begin
     id 13 
     name thorax
     direction 0.01176 0.998615 -0.0512909   
     length 2.03144   
     axis 0 0 0   XYZ
    dof rx ry rz
    limits (-20.0 45.0)
           (-30.0 30.0)
           (-30.0 30.0)
  end
  begin
     id 14 
     name lowerneck
     direction -0.0171909 0.999644 0.0204011   
     length 1.71818   
     axis 0 0 0   XYZ
    dof rx ry rz
    limits (-20.0 45.0)
           (-30.0 30.0)
           (-30.0 30.0)
  end
  begin
     id 15 
     name upperneck
     direction 0.0250902 0.997482 -0.0663316   
     length 1.66199   
     axis 0 0 0   XYZ
    dof rx ry rz
    limits (-20.0 45.0)
           (-30.0 30.0)
           (-30.0 30.0)
  end
  begin
     id 16
     name head
     direction 0.00881535 0.99956 -0.0283365  
     length 1.81545  
     axis 0 0 0   XYZ
    dof rx ry rz
    limits (-20.0 45.0)
           (-30.0 30.0)
           (-30.0 30.0)
  end
  begin
     id 17 
     name lclavicle
     direction 0.840411 0.486876 -0.238035  
     length 3.30409  
     axis 0 0 0   XYZ
    dof ry rz
    limits (-20.0 10.0)
           (0.0 20.0)
  end
  begin
     id 18 
     name lhumerus
     direction 1 -4.48977e-011 -5.16239e-027   
     length 4.62672   
     axis 180 -30 -90   XYZ
    dof rx ry rz
    limits (-60.0 90.0)
           (-90.0 90.0)
           (-90.0 90.0)
  end
  begin
     id 19
     name lradius
     direction 1 -4.48977e-011 -8.71171e-027   
     length 3.11018   
     axis 180 -30 -90   XYZ
    dof rx
    limits (-10.0 170.0)
  end
  begin
     id 20
     name lwrist
     direction 1 -4.48912e-011 -1.03764e-026   
     length 1.55509   
     axis 9.09556e-015 90 90   XYZ
    dof ry
    limits (-180.0 0.0)
 end
  begin
     id 21 
     name lhand
     direction 1 -4.49072e-011 -2.07528e-026   
     length 0.743834   
     axis 1.3242e-014 90 90   XYZ
    dof rx rz
    limits (-90.0 90.0)
           (-45.0 45.0)
  end
  begin
     id 22 
     name lfingers
     direction 1 -4.48909e-011 -4.15056e-026   
     length 0.599698   
     axis 2.64841e-014 90 90   XYZ
    dof rx
    limits (0.0 90.0)
  end
  begin
     id 23
     name lthumb
     direction 0.707107 -6.35013e-011 0.707107   
     length 0.86105   
     axis -90 45 2.85299e-015   XYZ
    dof rx rz
    limits (-45.0 45.0)
           (-45.0 45.0)
  end
  begin
     id 24 
     name rclavicle
     direction -0.835208 0.500237 -0.228452   
     length 3.2716  
     axis 0 0 0   XYZ 
    dof ry rz
    limits (-10.0 20.0)
           (-20.0 0.0)
  end
  begin
     id 25 
     name rhumerus
     direction -1 -4.48978e-011 -5.1953e-028  
     length 4.55919   
     axis 180 30 90   XYZ
    dof rx ry rz
    limits (-90.0 60.0)
           (-90.0 90.0)
           (-90.0 90.0)
  end
  begin
     id 26 
     name rradius
     direction -1 -4.48961e-011 -5.99546e-027   
     length 3.22748   
     axis 180 30 90   XYZ
    dof rx
    limits (-10.0 170.0)
  end
  begin
     id 27 
     name rwrist
     direction -1 -4.48986e-011 -1.03764e-026   
     length 1.61374   
     axis 9.09556e-015 -90 -90   XYZ
    dof ry
    limits (-180.0 0.0)
  end
  begin
     id 28
     name rhand
     direction -1 -4.4899e-011 -2.07528e-026   
     length 0.700882   
     axis 1.3242e-014 -90 -90   XYZ
    dof rx rz
    limits (-90.0 90.0)
           (-45.0 45.0)
  end
  begin
     id 29
     name rfingers
     direction -1 -4.48991e-011 -4.15056e-026   
     length 0.565069   
     axis 2.64841e-014 -90 -90   XYZ
    dof rx
    limits (0.0 90.0)
  end
  begin
     id 30
     name rthumb
     direction -0.707107 -6.34804e-011 0.707107   
     length 0.811329   
     axis -90 -45 -2.85299e-015   XYZ
    dof rx rz
    limits (-45.0 45.0)
           (-45.0 45.0)
  end
:hierarchy
  begin
    root lhipjoint rhipjoint lowerback
    lhipjoint lfemur
    lfemur ltibia
    ltibia lfoot
    lfoot ltoes
    rhipjoint rfemur
    rfemur rtibia
    rtibia rfoot
    rfoot rtoes
    lowerback upperback
    upperback thorax
    thorax lowerneck lclavicle rclavicle
    lowerneck upperneck
    upperneck head
    lclavicle lhumerus
    lhumerus lradius
    lradius lwrist
    lwrist lhand lthumb
    lhand lfingers
    rclavicle rhumerus
    rhumerus rradius
    rradius rwrist
    rwrist rhand rthumb
    rhand rfingers
  end

#!OML:ASF F:\VICON\USERDATA\INSTALL\SteveWalk\SteveWalk.ASF
:FULLY-SPECIFIED
:DEGREES
65
root -0.262293 16.3512 -28.1455 18.2376 -3.22859 3.81021
lowerback -15.4881 -0.184232 -5.39457
upperback -5.74109 0.615697 -1.9798
thorax 2.5431 0.334858 1.07354
lowerneck -4.18786 -1.28723 0.0759081
upperneck 7.95519 -1.83746 1.25658
head 3.30177 -0.861096 0.319373
rclavicle 6.87205e-015 2.06736e-014
rhumerus -39.7347 -7.89849 -85.3943
rradius 34.9067
rwrist -10.2151
rhand -14.7552 -36.0183
rfingers 7.12502
rthumb 11.4008 294.312
lclavicle 6.87205e-015 2.06736e-014
lhumerus -46.891 30.6642 60.9012
lradius 15.0041
lwrist -21.6503
lhand -17.6185 -13.4746
lfingers 7.12502
lthumb 8.63855 16.3287
rfemur -36.45 -6.57465 16.1505
rtibia 77.2014
rfoot -2.52899 3.26733
rtoes -12.7852
lfemur -37.2342 0.0551971 -27.8752
ltibia 36.9544
lfoot -17.506 -0.831694
ltoes -6.8717
66
root -0.258842 16.374 -27.9388 18.1509 -3.07026 3.6809
lowerback -15.3474 -0.222969 -5.24062
upperback -5.79188 0.526048 -1.8754
thorax 2.42096 0.293437 1.0805
lowerneck -4.0334 -1.27289 0.0524074
upperneck 8.20967 -1.82056 1.27113
head 3.36045 -0.852091 0.329464
rclavicle 2.73484e-015 1.59028e-015
rhumerus -40.6421 -8.59902 -84.8558
rradius 32.8958
rwrist -9.37915
rhand -14.7939 -35.7501
rfingers 7.12502
rthumb 11.3635 294.578
lclavicle 2.73484e-015 1.59028e-015
lhumerus -44.885 28.9204 63.5412
lradius 15.4501
lwrist -20.5064
lhand -17.4746 -14.3268
lfingers 7.12502
lthumb 8.77736 15.4707
rfemur -37.9227 -6.52736 16.5317
rtibia 76.9073
rfoot -4.02695 3.35475
rtoes -12.9916
lfemur -36.082 0.328548 -27.8149
ltibia 36.5744
lfoot -18.1468 -1.16247
ltoes -6.06861
67
root -0.259128 16.3925 -27.7358 17.9991 -2.8098 3.53873
lowerback -15.3334 -0.340695 -5.21028
upperback -5.63462 0.365185 -1.65757
thorax 2.58754 0.209335 1.26519
lowerneck -4.02087 -1.28806 -0.195521
upperneck 8.34794 -1.83558 1.39763
head 3.41074 -0.861663 0.413308
rclavicle 1.45439e-014 -1.03368e-014
rhumerus -41.0951 -9.6552 -83.9997
rradius 30.6699
rwrist -7.97382
rhand -14.6658 -35.9803
rfingers 7.12502
rthumb 11.4871 294.354
lclavicle 1.45439e-014 -1.03368e-014
lhumerus -42.5083 26.5664 66.8702
lradius 16.1448
lwrist -18.4815
lhand -17.323 -14.8266
lfingers 7.12502
lthumb 8.92364 14.9647
rfemur -39.26 -6.50096 16.9798
rtibia 76.4194
rfoot -5.48774 3.39631
rtoes -14.1615
lfemur -34.9233 0.584257 -27.7048
ltibia 36.32
lfoot -18.8082 -1.4649
ltoes -5.98787
68
root -0.264794 16.4041 -27.5493 18.0083 -2.46745 3.38142
lowerback -15.3924 -0.510736 -5.19242
upperback -5.42998 0.143845 -1.44324
thorax 2.8478 0.0923047 1.44242
lowerneck -4.21032 -1.31261 -0.255885
upperneck 8.42301 -1.86397 1.37967
head 3.47422 -0.87715 0.415612
rclavicle -5.81135e-015 -1.17283e-014
rhumerus -41.4369 -10.6712 -83.1801
rradius 28.7411
rwrist -6.47768
rhand -14.2434 -36.5825
rfingers 7.12502
rthumb 11.8944 293.775
lclavicle -5.81135e-015 -1.17283e-014
lhumerus -39.8576 23.7371 70.316
lradius 16.9932
lwrist -15.6726
lhand -17.1945 -14.661
lfingers 7.12502
lthumb 9.04764 15.125
rfemur -40.75 -6.46338 17.5147
rtibia 75.7569
rfoot -6.98348 3.15974
rtoes -15.0627
lfemur -34.0424 0.733482 -27.5104
ltibia 36.1476
lfoot -19.3433 -2.02739
ltoes -4.39012
69
root -0.25833 16.4154 -27.3344 18.0772 -2.47146 3.20704
lowerback -15.3041 -0.489759 -4.90657
upperback -5.66127 0.111364 -1.37745
thorax 2.56047 0.0841431 1.3449
lowerneck -3.98749 -1.3038 -0.154683
upperneck 8.78722 -1.85747 1.29954
head 3.55563 -0.873089 0.37284
rclavicle 5.38194e-015 1.07344e-014
rhumerus -42.7421 -11.2609 -82.4522
rradius 27.1913
rwrist -5.31688
rhand -13.9933 -37.0785
rfingers 7.12502
rthumb 12.1356 293.294
lclavicle 5.38194e-015 1.07344e-014
lhumerus -38.3428 20.9993 72.6545
lradius 17.8319
lwrist -13.6948
lhand -17.1971 -14.5886
lfingers 7.12502
lthumb 9.04515 15.1974
rfemur -42.0875 -6.24266 17.8662
rtibia 74.8421
rfoot -8.7386 2.83715
rtoes -14.9665
lfemur -33.1812 0.976348 -27.4146
ltibia 36.0106
lfoot -19.9859 -2.20577
ltoes -3.2587
70
root -0.262323 16.4211 -27.1215 17.9753 -2.13452 3.02812
lowerback -15.2519 -0.617625 -4.77692
upperback -5.66642 -0.0854952 -1.20172
thorax 2.5394 -0.0126113 1.42273
lowerneck -3.70287 -1.23025 -0.208921
upperneck 8.86405 -1.75449 1.29178
head 3.52688 -0.825039 0.385761
rclavicle -6.5133e-015 1.37161e-014
rhumerus -43.8296 -11.9746 -81.5315
rradius 25.5527
rwrist -3.55186
rhand -13.7915 -36.7529
rfingers 7.12502
rthumb 12.3302 293.631
lclavicle -6.5133e-015 1.37161e-014
lhumerus -36.7671 18.7207 74.7413
lradius 18.6164
lwrist -12.0584
lhand -17.1492 -14.0976
lfingers 7.12502
lthumb 9.09135 15.6864
rfemur -43.3195 -6.20686 18.3672
rtibia 73.7614
rfoot -9.65963 2.52995
rtoes -14.0579
lfemur -32.1543 1.21243 -27.2453
ltibia 35.8166
lfoot -20.6856 -2.17065
ltoes -4.8152
71
root -0.269975 16.4228 -26.9168 17.8952 -1.88239 2.70385
lowerback -15.1892 -0.704484 -4.56487
upperback -5.57675 -0.23898 -0.98239
thorax 2.61099 -0.0914437 1.50724
lowerneck -3.61956 -1.14746 -0.340882
upperneck 8.87215 -1.64112 1.37188
head 3.51501 -0.770379 0.440298
rclavicle -6.0738e-015 6.95746e-015
rhumerus -44.6941 -13.0464 -80.3564
rradius 23.8262
rwrist -1.11429
rhand -13.5704 -35.873
rfingers 7.12502
rthumb 12.5433 294.523
lclavicle -6.0738e-015 6.95746e-015
lhumerus -35.1235 15.97 76.9775
lradius 19.6109
lwrist -9.52252
lhand -17.4985 -13.8897
lfingers 7.12502
lthumb 8.75427 15.9088
rfemur -44.6775 -5.91131 19.0009
rtibia 72.4859
rfoot -9.85924 2.27894
rtoes -13.1945
lfemur -31.0767 1.68871 -26.9335
ltibia 35.5264
lfoot -21.3635 -2.26855
ltoes -6.10102
72
root -0.269424 16.4278 -26.7048 17.7659 -1.55242 2.59481
lowerback -15.1573 -0.819079 -4.38274
upperback -5.50982 -0.419206 -0.881705
thorax 2.67577 -0.183653 1.47925
lowerneck -3.30657 -1.18053 -0.397553
upperneck 8.80681 -1.68281 1.39504
head 3.43321 -0.793671 0.457566
rclavicle 1.54602e-015 7.7526e-015
rhumerus -45.5744 -14.5627 -78.7984
rradius 21.9785
rwrist 1.7433
rhand -13.2019 -35.5985
rfingers 7.12502
rthumb 12.8986 294.82
lclavicle 1.54602e-015 7.7526e-015
lhumerus -33.7797 12.9407 78.9485
lradius 20.8092
lwrist -7.26494
lhand -18.9104 -14.4419
lfingers 7.12502
lthumb 7.39163 15.409
rfemur -45.7114 -5.90427 19.3846
rtibia 70.9515
rfoot -10.6369 2.02816
rtoes -12.8342
lfemur -29.8807 2.29369 -26.8939
ltibia 35.2144
lfoot -22.0286 -2.97927
ltoes -4.85174
73
root -0.26597 16.4274 -26.4844 17.504 -0.951226 2.56875
lowerback -15.1088 -1.01319 -4.18375
upperback -5.36548 -0.703324 -0.818724
thorax 2.81807 -0.329877 1.3837
lowerneck -3.02243 -1.26331 -0.371625
upperneck 8.74951 -1.79341 1.37773
head 3.35936 -0.849836 0.444479
rclavicle 4.93079e-016 -9.34288e-015
rhumerus -46.6481 -16.3373 -76.8587
rradius 20.3874
rwrist 5.06062
rhand -12.3099 -35.8213
rfingers 7.12502
rthumb 13.7583 294.654
lclavicle 4.93079e-016 -9.34288e-015
lhumerus -32.4441 10.3464 80.4169
lradius 22.0164
lwrist -5.8467
lhand -20.2784 -14.8537
lfingers 7.12502
lthumb 6.07102 15.0393
rfemur -46.3794 -6.21468 19.7479
rtibia 69.171
rfoot -11.7015 1.58257
rtoes -12.4892
lfemur -28.5708 2.88409 -26.8919
ltibia 34.9517
lfoot -22.6668 -4.1194
ltoes -2.17326
74
root -0.267755 16.4146 -26.2707 17.4905 -0.568853 2.45769
lowerback -15.079 -1.13468 -4.04346
upperback -5.33705 -0.888068 -0.71323
thorax 2.84245 -0.422344 1.38332
lowerneck -3.10213 -1.25121 -0.308778
upperneck 8.88008 -1.78241 1.37025
head 3.41898 -0.841685 0.430998
rclavicle 4.75957e-015 1.98785e-015
rhumerus -47.9135 -18.3134 -74.5175
rradius 18.8871
rwrist 8.73075
rhand -11.6827 -35.7264
rfingers 7.12502
rthumb 14.3627 294.79
lclavicle 4.75957e-015 1.98785e-015
lhumerus -31.3056 8.02903 81.5899
lradius 23.3249
lwrist -4.38746
lhand -20.5634 -14.8966
lfingers 7.12502
lthumb 5.79584 15.0041
rfemur -47.3378 -6.12134 20.1495
rtibia 67.1898
rfoot -12.1196 0.82186
rtoes -11.6446
lfemur -27.616 3.58825 -26.8136
ltibia 34.7271
lfoot -23.2748 -5.11789
ltoes -0.325808
75
root -0.277641 16.4018 -26.0648 17.6095 -0.329771 2.40877
lowerback -14.7023 -1.22362 -4.07534
upperback -5.6183 -1.03149 -0.629171
thorax 2.35413 -0.480816 1.47235
lowerneck -2.99891 -1.24331 -0.23819
upperneck 9.11664 -1.77437 1.31145
head 3.47968 -0.837022 0.400168
rclavicle -7.6734e-015 -1.05356e-014
rhumerus -49.7005 -20.1091 -71.9792
rradius 17.6099
rwrist 12.1465
rhand -11.4471 -35.743
rfingers 7.12502
rthumb 14.5897 294.79
lclavicle -7.6734e-015 -1.05356e-014
lhumerus -30.7136 5.75053 82.468
lradius 24.6915
lwrist -2.88228
lhand -19.746 -15.3478
lfingers 7.12502
lthumb 6.58507 14.5299
rfemur -48.3753 -5.80827 20.4545
rtibia 64.9774
rfoot -12.4121 -0.237476
rtoes -11.4032
lfemur -26.8419 4.39433 -26.7951
ltibia 34.5138
lfoot -23.8445 -5.88811
ltoes -0.228255
76
root -0.284211 16.3976 -25.8508 17.6542 0.058508 2.35933
lowerback -15.1978 -1.41194 -4.15881
upperback -5.32947 -1.24021 -0.445074
thorax 2.94 -0.596085 1.66626
lowerneck -2.82719 -1.26646 -0.324472
upperneck 8.83872 -1.79111 1.25482
head 3.3506 -0.852279 0.397289
rclavicle -6.09021e-015 -1.39149e-014
rhumerus -50.8167 -21.4105 -69.946
rradius 16.7895
rwrist 14.8875
rhand -11.073 -35.8865
rfingers 7.12502
rthumb 14.9502 294.673
lclavicle -6.09021e-015 -1.39149e-014
lhumerus -29.2395 3.81463 83.3465
lradius 25.7921
lwrist -1.49984
lhand -18.7108 -15.9892
lfingers 7.12502
lthumb 7.58431 13.8548
rfemur -49.1101 -5.65798 20.7063
rtibia 62.5344
rfoot -13.3521 -1.09175
rtoes -9.57936
lfemur -25.9146 5.08131 -26.7105
ltibia 34.245
lfoot -24.366 -6.61144
ltoes -0.58876
77
root -0.286807 16.3974 -25.6306 17.6692 0.36348 2.27088
lowerback -14.562 -1.42636 -3.85473
upperback -5.81681 -1.3457 -0.475749
thorax 2.0873 -0.630856 1.46114
lowerneck -2.49861 -1.28561 -0.34029
upperneck 9.29605 -1.83264 1.37399
head 3.4485 -0.868384 0.438818
rclavicle -2.75969e-015 1.49089e-015
rhumerus -53.4069 -22.7822 -67.1214
rradius 15.9797
rwrist 18.1235
rhand -10.7025 -35.7217
rfingers 7.12502
rthumb 15.3071 294.865
lclavicle -2.75969e-015 1.49089e-015
lhumerus -28.9659 1.48542 83.8933
lradius 27.1019
lwrist -0.0300923
lhand -18.3057 -16.1455
lfingers 7.12502
lthumb 7.97532 13.6841
rfemur -49.6764 -5.47879 20.9113
rtibia 59.8794
rfoot -13.623 -1.49693
rtoes -3.69556
lfemur -24.85 5.59495 -26.5539
ltibia 33.7979
lfoot -24.8037 -7.14229
ltoes -0.569109
78
root -0.290789 16.3945 -25.4126 17.5938 0.739635 2.23954
lowerback -14.893 -1.5513 -3.89015
upperback -5.52533 -1.48547 -0.352127
thorax 2.58239 -0.710187 1.57738
lowerneck -2.68601 -1.25684 -0.343668
upperneck 9.28874 -1.79825 1.42521
head 3.48237 -0.848591 0.456461
rclavicle 4.13876e-016 -6.06293e-015
rhumerus -55.0415 -25.1892 -63.427
rradius 14.6669
rwrist 22.324
rhand -10.7865 -35.1038
rfingers 7.12502
rthumb 15.2262 295.476
lclavicle 4.13876e-016 -6.06293e-015
lhumerus -27.7207 -0.233117 84.4778
lradius 28.578
lwrist 1.00797
lhand -18.4406 -16.0356
lfingers 7.12502
lthumb 7.84508 13.7988
rfemur -50.0582 -5.51016 21.1275
rtibia 57.0224
rfoot -13.5258 -2.49579
rtoes -1.89904
lfemur -23.603 6.09264 -26.4111
ltibia 33.154
lfoot -25.2208 -7.69045
ltoes -0.757285
79
root -0.292945 16.3929 -25.1932 17.4831 1.41592 2.33657
lowerback -14.8652 -1.77816 -3.91623
upperback -5.37272 -1.77932 -0.303065
thorax 2.74703 -0.859868 1.59136
lowerneck -2.87563 -1.26614 -0.325857
upperneck 9.29256 -1.82236 1.53878
head 3.52187 -0.854534 0.488602
rclavicle 1.77889e-014 3.8763e-015
rhumerus -56.948 -26.9717 -60.0873
rradius 13.7291
rwrist 25.6619
rhand -11.3749 -34.3506
rfingers 7.12502
rthumb 14.6593 296.188
lclavicle 1.77889e-014 3.8763e-015
lhumerus -26.8432 -1.98847 84.871
lradius 30.2784
lwrist 2.07531
lhand -18.9354 -15.8998
lfingers 7.12502
lthumb 7.36751 13.9519
rfemur -50.2511 -5.93261 21.287
rtibia 53.9925
rfoot -13.75 -4.11561
rtoes -6.94147
lfemur -22.1802 6.57193 -26.3249
ltibia 32.3428
lfoot -25.6697 -8.43081
ltoes -1.48131
